<svg width="1257" height="687" viewBox="0 0 1257 687" fill="none" xmlns="http://www.w3.org/2000/svg">
<g clip-path="url(#clip0_2298_7135)">
<path d="M1177.82 -669.385H72.8686C42.3573 -669.385 17.6211 -644.659 17.6211 -614.155V490.413C17.6211 520.914 42.3573 545.641 72.8686 545.641H1177.82C1208.33 545.641 1233.07 520.914 1233.07 490.413V-614.155C1233.07 -644.659 1208.33 -669.385 1177.82 -669.385ZM1122.57 435.185H128.116V-558.928H1122.57V435.185Z" fill="white" fill-opacity="0.03"/>
<path d="M293.849 324.718H956.818C987.332 324.718 1012.07 299.99 1012.07 269.49V-393.252C1012.07 -423.753 987.332 -448.48 956.818 -448.48H625.334C594.825 -448.48 570.087 -423.753 570.087 -393.252V-218.067C505.783 -195.269 459.592 -133.881 459.592 -61.8815C459.592 29.4777 533.941 103.804 625.334 103.804C716.731 103.804 791.076 29.4777 791.076 -61.8815C791.076 -133.881 744.884 -195.265 680.583 -218.067V-338.024H901.575V214.261H349.097V-338.024H367.513C398.024 -338.024 422.76 -362.751 422.76 -393.252C422.76 -423.753 398.024 -448.48 367.513 -448.48H293.849C263.337 -448.48 238.602 -423.753 238.602 -393.252V269.49C238.602 299.99 263.337 324.718 293.849 324.718ZM625.334 -6.6528C594.872 -6.6528 570.087 -31.4283 570.087 -61.8815C570.087 -92.3344 594.872 -117.11 625.334 -117.11C655.796 -117.11 680.583 -92.3344 680.583 -61.8815C680.583 -31.4283 655.796 -6.6528 625.334 -6.6528Z" fill="white" fill-opacity="0.03"/>
</g>
<defs>
<clipPath id="clip0_2298_7135">
<rect width="1257" height="687" fill="white"/>
</clipPath>
</defs>
</svg>
